<svg width="24" height="24" viewBox="0 0 24 24" fill="none" xmlns="http://www.w3.org/2000/svg">
<g clip-path="url(#clip0_1287_9753)">
<path fill-rule="evenodd" clip-rule="evenodd" d="M12.0005 2.75C14.5811 2.75026 16.6742 4.84225 16.6743 7.42285V9.94629C18.1269 9.99741 19.2896 11.1893 19.2896 12.6543V18.5381C19.2896 20.0355 18.075 21.2497 16.5776 21.25H7.42432C5.92677 21.25 4.7124 20.0356 4.7124 18.5381V12.6543C4.7124 11.189 5.87473 9.99705 7.32764 9.94629V7.42285C7.32776 4.84221 9.41987 2.7502 12.0005 2.75ZM7.42432 11.4424C6.7552 11.4424 6.2124 11.9852 6.2124 12.6543V18.5381C6.2124 19.2072 6.7552 19.75 7.42432 19.75H16.5776C17.2465 19.7497 17.7896 19.207 17.7896 18.5381V12.6543C17.7896 11.9853 17.2465 11.4426 16.5776 11.4424H7.42432ZM12.0005 4.25C10.2483 4.2502 8.82776 5.67064 8.82764 7.42285V9.94238H15.1743V7.42285C15.1742 5.67068 13.7526 4.25026 12.0005 4.25Z" fill="currentColor"/>
</g>
<defs>
<clipPath id="clip0_1287_9753">
<rect width="24.0001" height="24" fill="white"/>
</clipPath>
</defs>
</svg>
