<svg width="24" height="24" viewBox="0 0 24 24" fill="none" xmlns="http://www.w3.org/2000/svg">
<g clip-path="url(#clip0_2664_38460)">
<path d="M12.8188 13.7051C13.8857 13.7051 14.9092 14.1294 15.6636 14.8838C16.4175 15.6381 16.8412 16.6611 16.8413 17.7275V19.3643C16.841 19.7782 16.5053 20.1143 16.0913 20.1143C15.6773 20.1142 15.3416 19.7782 15.3413 19.3643V17.7275C15.3412 17.0587 15.0749 16.4174 14.6021 15.9443C14.129 15.4713 13.4878 15.2051 12.8188 15.2051H6.27295C5.60398 15.2051 4.96279 15.4713 4.48975 15.9443C4.01686 16.4174 3.75056 17.0587 3.75049 17.7275V19.3643C3.75018 19.7782 3.41451 20.1143 3.00049 20.1143C2.58647 20.1143 2.2508 19.7782 2.25049 19.3643V17.7275C2.25056 16.6609 2.67501 15.6381 3.4292 14.8838C4.18354 14.1294 5.20615 13.7051 6.27295 13.7051H12.8188Z" fill="currentColor"/>
<path d="M17.8198 14.374C17.9234 13.973 18.3328 13.7314 18.7339 13.835C19.5966 14.0578 20.3608 14.5614 20.9067 15.2656C21.4527 15.97 21.7498 16.8364 21.7505 17.7275V19.3643C21.7502 19.7782 21.4145 20.1142 21.0005 20.1143C20.5864 20.1143 20.2508 19.7782 20.2505 19.3643V17.7285L20.2417 17.5195C20.2011 17.0353 20.0207 16.571 19.7212 16.1846C19.3789 15.7431 18.8997 15.4279 18.3589 15.2881C17.958 15.1846 17.7166 14.7749 17.8198 14.374Z" fill="currentColor"/>
<path fill-rule="evenodd" clip-rule="evenodd" d="M9.54639 3.88574C11.7678 3.88599 13.5687 5.68777 13.5688 7.90918C13.5686 10.1305 11.7677 11.9324 9.54639 11.9326C7.32486 11.9326 5.52321 10.1306 5.52295 7.90918C5.52309 5.68761 7.32478 3.88574 9.54639 3.88574ZM9.54639 5.38672C8.15321 5.38672 7.02309 6.51604 7.02295 7.90918C7.02321 9.30222 8.15329 10.4326 9.54639 10.4326C10.9393 10.4324 12.0686 9.30206 12.0688 7.90918C12.0687 6.51619 10.9393 5.38697 9.54639 5.38672Z" fill="currentColor"/>
<path d="M14.5464 4.55762C14.6491 4.15635 15.0582 3.91386 15.4595 4.0166C16.3246 4.2382 17.0915 4.74177 17.6392 5.44727C18.1866 6.15278 18.4839 7.02104 18.4839 7.91406C18.4837 8.80686 18.1866 9.67457 17.6392 10.3799C17.0915 11.0852 16.3245 11.589 15.4595 11.8105C15.0585 11.9131 14.6494 11.6713 14.5464 11.2705C14.4437 10.8693 14.6862 10.4602 15.0874 10.3574C15.6298 10.2185 16.1112 9.90314 16.4546 9.46094C16.7979 9.01869 16.9837 8.47389 16.9839 7.91406C16.9839 7.35422 16.7977 6.80955 16.4546 6.36719C16.1112 5.92479 15.6299 5.60871 15.0874 5.46973C14.6865 5.36707 14.4443 4.95857 14.5464 4.55762Z" fill="currentColor"/>
</g>
<defs>
<clipPath id="clip0_2664_38460">
<rect width="24.0001" height="24" fill="white"/>
</clipPath>
</defs>
</svg>
