<svg width="24" height="24" viewBox="0 0 24 24" fill="none" xmlns="http://www.w3.org/2000/svg">
<g clip-path="url(#clip0_1248_36929)">
<path d="M12.0005 4.25C12.4147 4.25 12.7505 4.58579 12.7505 5V11.25H19.0005C19.4147 11.25 19.7505 11.5858 19.7505 12C19.7505 12.4142 19.4147 12.75 19.0005 12.75H12.7505V19C12.7505 19.4142 12.4147 19.75 12.0005 19.75C11.5863 19.75 11.2505 19.4142 11.2505 19V12.75H5.00049C4.58628 12.75 4.25049 12.4142 4.25049 12C4.25049 11.5858 4.58628 11.25 5.00049 11.25H11.2505V5C11.2505 4.58579 11.5863 4.25 12.0005 4.25Z" fill="currentColor"/>
</g>
<defs>
<clipPath id="clip0_1248_36929">
<rect width="24.0001" height="24" fill="white"/>
</clipPath>
</defs>
</svg>
