<svg width="24" height="24" viewBox="0 0 24 24" fill="none" xmlns="http://www.w3.org/2000/svg">
<g clip-path="url(#clip0_2234_33299)">
<path d="M6.82761 4.24885C8.50826 3.32215 10.445 2.96663 12.3452 3.23615C14.2378 3.50461 15.9917 4.37907 17.3462 5.72736L20.2505 8.46076V4.7967C20.2505 4.38252 20.5863 4.04675 21.0005 4.0467C21.4147 4.04671 21.7505 4.38249 21.7505 4.7967V10.1981C21.7502 10.6121 21.4145 10.9481 21.0005 10.9481H15.5991C15.1852 10.9479 14.8494 10.6119 14.8491 10.1981C14.8491 9.78398 15.1851 9.44827 15.5991 9.44806H19.1098L16.3188 6.81916C16.3134 6.81406 16.3075 6.80879 16.3022 6.80353C15.1755 5.67608 13.7124 4.94536 12.1343 4.7215C10.5562 4.49771 8.948 4.7927 7.55222 5.56232C6.15659 6.33193 5.04892 7.53423 4.39597 8.9881C3.74305 10.4421 3.58001 12.0693 3.9321 13.6238C4.28424 15.1784 5.13237 16.5765 6.34812 17.6072C7.56377 18.6379 9.08134 19.2455 10.6723 19.3387C12.2636 19.4318 13.8427 19.0058 15.1704 18.1238C16.498 17.2419 17.5027 15.9518 18.0337 14.449C18.1716 14.0585 18.6001 13.854 18.9907 13.992C19.3811 14.13 19.5855 14.5576 19.4477 14.9481C18.8084 16.7575 17.5989 18.3109 16.0005 19.3729C14.402 20.4348 12.5012 20.9487 10.5854 20.8367C8.66954 20.7247 6.84126 19.9929 5.37742 18.7518C3.91362 17.5107 2.89318 15.8266 2.46921 13.9549C2.04538 12.0833 2.2408 10.1244 3.02683 8.37385C3.81295 6.62327 5.14723 5.17555 6.82761 4.24885Z" fill="currentColor"/>
</g>
<defs>
<clipPath id="clip0_2234_33299">
<rect width="24.0001" height="24" fill="white"/>
</clipPath>
</defs>
</svg>
