<svg width="24" height="24" viewBox="0 0 24 24" fill="none" xmlns="http://www.w3.org/2000/svg">
<g clip-path="url(#clip0_1248_37122)">
<path d="M11.1118 3.25C15.4532 3.25 18.9731 6.77081 18.9731 11.1123C18.973 13.0125 18.2977 14.7552 17.1753 16.1143L20.5308 19.4697C20.8236 19.7626 20.8236 20.2374 20.5308 20.5303C20.2379 20.8227 19.763 20.823 19.4702 20.5303L16.1147 17.1748C14.7556 18.2975 13.0124 18.9727 11.1118 18.9727C6.77101 18.9723 3.25189 15.4532 3.25146 11.1123C3.25146 6.77102 6.77075 3.25034 11.1118 3.25ZM11.1118 4.75098C7.59925 4.75131 4.75146 7.59937 4.75146 11.1123C4.75189 14.6249 7.59951 17.4723 11.1118 17.4727C14.6244 17.4727 17.4727 14.6251 17.4731 11.1123C17.4731 7.59916 14.6247 4.75098 11.1118 4.75098Z" fill="#262626"/>
</g>
<defs>
<clipPath id="clip0_1248_37122">
<rect width="24.0001" height="24" fill="white"/>
</clipPath>
</defs>
</svg>
