<svg width="24" height="24" viewBox="0 0 24 24" fill="none" xmlns="http://www.w3.org/2000/svg">
<g clip-path="url(#clip0_2952_58531)">
<path fill-rule="evenodd" clip-rule="evenodd" d="M19.7526 3.292C20.0244 3.19699 20.3273 3.26609 20.5309 3.46973C20.7345 3.67341 20.8037 3.97622 20.7086 4.24805L14.7584 21.2481C14.6569 21.5379 14.3885 21.7362 14.0817 21.749C13.7744 21.7616 13.4898 21.5857 13.3649 21.3047L10.0817 13.918L2.69594 10.6357C2.41493 10.5109 2.23907 10.2262 2.25161 9.91895C2.26437 9.61204 2.46267 9.34379 2.75258 9.24219L19.7526 3.292ZM11.5446 13.5156L13.9674 18.9658L18.2067 6.85352L11.5446 13.5156ZM5.03383 10.0322L10.484 12.4551L17.1461 5.79297L5.03383 10.0322Z" fill="currentColor"/>
</g>
<defs>
<clipPath id="clip0_2952_58531">
<rect width="24.0001" height="24" fill="white"/>
</clipPath>
</defs>
</svg>
