<svg width="24" height="24" viewBox="0 0 24 24" fill="none" xmlns="http://www.w3.org/2000/svg">
<g clip-path="url(#clip0_5989_167894)">
<path d="M12.001 8.68164C12.4147 8.68213 12.7508 9.01789 12.751 9.43164V12.6953H15.3291C15.7428 12.6958 16.0789 13.0316 16.0791 13.4453C16.0791 13.8592 15.7429 14.1948 15.3291 14.1953H12.001C11.5868 14.1953 11.251 13.8595 11.251 13.4453V9.43164C11.2512 9.01759 11.5869 8.68164 12.001 8.68164Z" fill="currentColor"/>
<path fill-rule="evenodd" clip-rule="evenodd" d="M14.2979 2C14.7119 2.00025 15.0479 2.33594 15.0479 2.75C15.0479 3.16406 14.7119 3.49975 14.2979 3.5H12.751V4.92578C17.1235 5.30612 20.5545 8.97421 20.5547 13.4453C20.5547 18.1694 16.7249 21.9995 12.001 22C7.2766 22 3.44629 18.1697 3.44629 13.4453C3.44652 8.97375 6.87785 5.30549 11.251 4.92578V3.5H9.7041C9.28989 3.5 8.9541 3.16421 8.9541 2.75C8.9541 2.33579 9.28989 2 9.7041 2H14.2979ZM12.001 6.3916C8.10518 6.3916 4.94653 9.54957 4.94629 13.4453C4.94629 17.3413 8.10503 20.5 12.001 20.5C15.8965 20.4995 19.0547 17.341 19.0547 13.4453C19.0544 9.54988 15.8964 6.39209 12.001 6.3916Z" fill="currentColor"/>
</g>
<defs>
<clipPath id="clip0_5989_167894">
<rect width="24.0001" height="24" fill="white"/>
</clipPath>
</defs>
</svg>
