<svg width="24" height="24" viewBox="0 0 24 24" fill="none" xmlns="http://www.w3.org/2000/svg">
<g clip-path="url(#clip0_1287_9762)">
<path fill-rule="evenodd" clip-rule="evenodd" d="M7.71143 6.54396C7.98112 3.97877 10.2757 2.11435 12.8394 2.3838C15.4027 2.65363 17.2593 4.95453 16.9897 7.51954L16.7339 9.95118C18.1466 10.0439 19.2622 11.2186 19.2622 12.6543V18.5391C19.2618 20.0345 18.0512 21.2495 16.5552 21.25H7.41943C5.92314 21.2498 4.71283 20.0346 4.7124 18.5391V12.6543C4.7124 11.1584 5.92287 9.94263 7.41943 9.9424H15.2271L15.4985 7.36232C15.6817 5.6183 14.4187 4.0588 12.6821 3.87599C10.9453 3.69353 9.38596 4.95693 9.20264 6.70118L9.03076 8.34083C8.98729 8.75231 8.61804 9.05163 8.20654 9.0088C7.79478 8.96552 7.4956 8.59631 7.53857 8.18458L7.71143 6.54396ZM7.41943 11.4424C6.75423 11.4426 6.2124 11.9839 6.2124 12.6543V18.5391C6.21283 19.2091 6.7545 19.7498 7.41943 19.75H16.5552C17.2199 19.7495 17.7618 19.209 17.7622 18.5391V12.6543C17.7622 11.984 17.2202 11.4429 16.5552 11.4424H7.41943Z" fill="currentColor"/>
</g>
<defs>
<clipPath id="clip0_1287_9762">
<rect width="24.0001" height="24" fill="white"/>
</clipPath>
</defs>
</svg>
